<svg xmlns="http://www.w3.org/2000/svg" viewBox="0 0 104 106.06"><defs><style>.cls-1{fill:#fff;}.cls-2{fill:#2a709e;}</style></defs><g id="Capa_2" data-name="Capa 2"><g id="Artwork"><circle class="cls-1" cx="52" cy="48.22" r="48.22"/><path class="cls-2" d="M74.69,21.5h7.83a1.53,1.53,0,1,0,0-3.05H74.69a1.53,1.53,0,1,0,0,3.05Z"/><path class="cls-2" d="M96.64,18.45H89a1.53,1.53,0,1,0,0,3.05h7.61a4.31,4.31,0,0,1,4.3,4.31v54H18.79a1.53,1.53,0,1,0,0,3h82.15v1.65a4.31,4.31,0,0,1-4.3,4.3H7.36a4.3,4.3,0,0,1-4.3-4.3V82.88h9.22a1.53,1.53,0,1,0,0-3H3.06v-54a4.3,4.3,0,0,1,4.3-4.31h22a1.53,1.53,0,1,0,0-3.05H7.36A7.37,7.37,0,0,0,0,25.81V84.53a7.37,7.37,0,0,0,7.36,7.36H32.65v6L28.8,103H27a1.53,1.53,0,0,0,0,3.06h50.5a1.53,1.53,0,1,0,0-3.06H75.4l-3.85-5.15v-6H96.64A7.37,7.37,0,0,0,104,84.53V25.81a7.37,7.37,0,0,0-7.36-7.36ZM68.8,99.27,71.58,103h-39l2.78-3.73a1.48,1.48,0,0,0,.3-.91V91.89H68.5v6.47a1.48,1.48,0,0,0,.3.91Z"/><path class="cls-2" d="M52,38.08A18.11,18.11,0,1,0,33.89,20,18.12,18.12,0,0,0,52,38.08ZM52,4.93A15.05,15.05,0,1,1,37,20,15.07,15.07,0,0,1,52,4.93Z"/><path class="cls-2" d="M49,27.55a1.5,1.5,0,0,0,1,.4A1.48,1.48,0,0,0,51,27.52L61.9,17a1.53,1.53,0,0,0-2.13-2.2l-9.83,9.5-3.06-2.78a1.53,1.53,0,1,0-2.05,2.26Z"/><path class="cls-2" d="M23.8,47.52h43a1.53,1.53,0,0,0,0-3.06h-43a4,4,0,0,0-4,4v9a4,4,0,0,0,4,4H48.9a1.53,1.53,0,1,0,0-3H23.8a.92.92,0,0,1-.92-.92v-9A.92.92,0,0,1,23.8,47.52Z"/><path class="cls-2" d="M73.29,47.52h6.9a.93.93,0,0,1,.93.92v9a.93.93,0,0,1-.93.92H74.36a1.53,1.53,0,1,0,0,3h5.83a4,4,0,0,0,4-4v-9a4,4,0,0,0-4-4h-6.9a1.53,1.53,0,0,0,0,3.06Z"/><path class="cls-2" d="M70,61.49a2.46,2.46,0,0,0-1.69-2L56.81,55.83A2.47,2.47,0,0,0,53.6,58L52.9,70.1a2.42,2.42,0,0,0,1.25,2.29,2.46,2.46,0,0,0,2.61-.11L59,70.71l2.8,4.08a2.34,2.34,0,0,0,1.55,1,2.12,2.12,0,0,0,.44,0,2.37,2.37,0,0,0,1.36-.42l3.68-2.53a2.42,2.42,0,0,0,.63-3.36l-2.8-4.07L69,63.88a2.43,2.43,0,0,0,1-2.39Zm-6,11-3.3-4.81a1.51,1.51,0,0,0-1-.63,1.33,1.33,0,0,0-.28,0,1.52,1.52,0,0,0-.87.27L56,69.08,56.61,59,66.25,62l-2.54,1.75a1.51,1.51,0,0,0-.64,1,1.49,1.49,0,0,0,.24,1.14l3.3,4.81Z"/></g></g></svg>