<svg xmlns="http://www.w3.org/2000/svg" viewBox="0 0 107.91 107.91"><defs><style>.cls-1{fill:#fff;}.cls-2{fill:#2a709e;}</style></defs><g id="Capa_2" data-name="Capa 2"><g id="Artwork"><circle class="cls-1" cx="53.96" cy="54.84" r="48.22"/><path class="cls-2" d="M31.71,65.76A3.23,3.23,0,0,1,36,67.11l5.95,11a2.1,2.1,0,0,0,4-1V61a2.11,2.11,0,0,0-4.22,0v7.75l-2-3.68a7.45,7.45,0,0,0-13.8,5.29l3.86,16a28.88,28.88,0,0,0,4.78,10.32l7.56,10.34a2.08,2.08,0,0,0,1.7.86,2.14,2.14,0,0,0,1.25-.4,2.11,2.11,0,0,0,.45-3L38,94.22a24.76,24.76,0,0,1-4.08-8.82L30,69.41A3.23,3.23,0,0,1,31.71,65.76Z"/><path class="cls-2" d="M79.3,56.78a7.12,7.12,0,0,0-3.44.88A7.16,7.16,0,0,0,65.55,54a7.18,7.18,0,0,0-9.49-3.55V40.4a7.18,7.18,0,1,0-14.35,0v3.65a2.11,2.11,0,0,0,4.22,0V40.4a3,3,0,0,1,5.92,0V70.14a2.11,2.11,0,1,0,4.21,0V57A3,3,0,0,1,62,57V70.14a2.11,2.11,0,1,0,4.21,0V60.22a3,3,0,0,1,5.92,0v9.92a2.11,2.11,0,0,0,4.22,0V64a3,3,0,0,1,5.92,0V81.74a46.47,46.47,0,0,1-2.14,14l-3,9.49a2.11,2.11,0,0,0,1.38,2.64,2.28,2.28,0,0,0,.63.09,2.1,2.1,0,0,0,2-1.47l3-9.48a50.77,50.77,0,0,0,2.33-15.22V64A7.18,7.18,0,0,0,79.3,56.78Z"/><path class="cls-2" d="M107.74,11.18a3.53,3.53,0,0,0-2.87-2.42l-6.45-.93L95.53,2a3.52,3.52,0,0,0-3.18-2h0a3.55,3.55,0,0,0-3.19,2L86.28,7.83l-6.46.94a3.55,3.55,0,0,0-2,6.05l4.67,4.55-1.1,6.43a3.53,3.53,0,0,0,5.15,3.74l5.77-3,5.78,3a3.55,3.55,0,0,0,5.15-3.74l-1.11-6.43,4.67-4.56A3.51,3.51,0,0,0,107.74,11.18ZM99,16.6a3.53,3.53,0,0,0-1,3.14l.93,5.44L94,22.61a3.56,3.56,0,0,0-3.3,0l-4.89,2.57.94-5.44a3.56,3.56,0,0,0-1-3.14l-4-3.85,5.46-.8A3.52,3.52,0,0,0,89.9,10l2.45-4.95,2.44,5A3.58,3.58,0,0,0,97.47,12l5.46.79Z"/><path class="cls-2" d="M69.35,11.18a3.53,3.53,0,0,0-2.87-2.42L60,7.83,57.14,2A3.54,3.54,0,0,0,54,0h0a3.52,3.52,0,0,0-3.18,2L47.89,7.83l-6.46.94a3.55,3.55,0,0,0-2,6.05l4.67,4.55L43,25.8a3.53,3.53,0,0,0,5.15,3.74l5.77-3,5.78,3a3.54,3.54,0,0,0,5.14-3.74l-1.1-6.43,4.67-4.56A3.53,3.53,0,0,0,69.35,11.18ZM60.58,16.6a3.55,3.55,0,0,0-1,3.14l.93,5.44-4.89-2.57a3.56,3.56,0,0,0-3.3,0l-4.89,2.57.93-5.44a3.53,3.53,0,0,0-1-3.14l-3.95-3.85,5.46-.8A3.52,3.52,0,0,0,51.51,10L54,5.06l2.44,5A3.58,3.58,0,0,0,59.07,12l5.47.79Z"/><path class="cls-2" d="M31,11.18a3.52,3.52,0,0,0-2.86-2.42l-6.46-.93L18.74,2a3.52,3.52,0,0,0-3.18-2h0a3.52,3.52,0,0,0-3.18,2L9.5,7.83,3,8.77a3.55,3.55,0,0,0-2,6.05l4.68,4.55L4.65,25.8A3.57,3.57,0,0,0,8.14,30a3.56,3.56,0,0,0,1.66-.42l5.77-3,5.77,3a3.55,3.55,0,0,0,5.15-3.74l-1.1-6.43,4.67-4.56A3.52,3.52,0,0,0,31,11.18ZM22.19,16.6a3.58,3.58,0,0,0-1,3.14l.94,5.44-4.89-2.57a3.56,3.56,0,0,0-3.3,0L9,25.18,10,19.74a3.53,3.53,0,0,0-1-3.14L5,12.75l5.47-.8A3.54,3.54,0,0,0,13.12,10l2.44-4.95L18,10A3.56,3.56,0,0,0,20.68,12l5.47.79Z"/><path class="cls-2" d="M45.31,51.24a2.12,2.12,0,0,0-3,0,2.16,2.16,0,0,0-.62,1.49,2.12,2.12,0,0,0,.62,1.49,2.1,2.1,0,0,0,3,0,2.12,2.12,0,0,0,.62-1.49A2.16,2.16,0,0,0,45.31,51.24Z"/></g></g></svg>