<svg xmlns="http://www.w3.org/2000/svg" viewBox="0 0 900.67 353.7"><defs><style>.cls-1{fill:#2875a8;}.cls-2{fill:none;stroke:#2875a8;stroke-miterlimit:10;stroke-width:1.34px;}.cls-3{fill:#e9f3f7;}.cls-4{fill:#2a7cb8;}.cls-5{fill:#29a0c9;}</style></defs><g id="Capa_2" data-name="Capa 2"><g id="Capa_1-2" data-name="Capa 1"><circle class="cls-1" cx="176.85" cy="176.85" r="165.95"/><circle class="cls-2" cx="176.85" cy="176.85" r="176.18"/><path class="cls-3" d="M238.77,42.15H115.67a2.79,2.79,0,0,0-2.79,2.78V74.61a2.79,2.79,0,0,0,2.79,2.78h13.38c19.92,26.36,1.65,60.46-10.36,86-9.34,19.83-19.37,41.18-24,64.32,25.26-6.15,56.93-17.17,95.46-33.18q6.12-2.55,12-4.61c-8.94-10.14-16.93-21.12-20.33-36.16-3.09-13.62-.75-40.59,1.9-55.63,10,37.57,51.44,33.3,57.57,32.46a.88.88,0,0,0,.76-.88v-6.59a.89.89,0,0,0-.87-.88c-25.65-.68-31.45-31.86-32.76-44.84h30.84a2.79,2.79,0,0,0,2.79-2.78V44.93a2.79,2.79,0,0,0-2.79-2.78Z"/><ellipse class="cls-3" cx="295.23" cy="128.29" rx="18.46" ry="18.22"/><path class="cls-3" d="M264.28,107.74a15.86,15.86,0,0,0-8.52-8.4,15.91,15.91,0,0,0,8.52-8.4,15.86,15.86,0,0,0,8.52,8.4A15.91,15.91,0,0,0,264.28,107.74Z"/><path class="cls-3" d="M257.33,148.64a16.29,16.29,0,0,0-8.52-8.4,15.94,15.94,0,0,0,8.52-8.4,15.86,15.86,0,0,0,8.52,8.4A15.88,15.88,0,0,0,257.33,148.64Z"/><ellipse class="cls-3" cx="81.74" cy="134.66" rx="18.22" ry="18.46"/><path class="cls-3" d="M61.2,165.61a15.83,15.83,0,0,0-8.4,8.52,15.91,15.91,0,0,0-8.4-8.52,15.93,15.93,0,0,0,8.4-8.52A15.94,15.94,0,0,0,61.2,165.61Z"/><path class="cls-3" d="M102.1,172.56a16.26,16.26,0,0,0-8.4,8.52,16,16,0,0,0-8.41-8.52A15.85,15.85,0,0,0,93.7,164,15.91,15.91,0,0,0,102.1,172.56Z"/><path class="cls-4" d="M136.29,251.32c-41.89,4.2-68.32-.86-85.76-9a142.28,142.28,0,0,0,252.09,1C266.44,222.9,197.64,245.17,136.29,251.32Z"/><path class="cls-5" d="M190.18,194.52c-69.36,28.83-116.54,41.49-144,38.61q2,4.67,4.34,9.16c17.44,8.17,43.87,13.23,85.76,9,61.35-6.15,130.15-28.42,166.33-8A141.25,141.25,0,0,0,317,201C295.55,179.64,252,168.84,190.18,194.52Z"/><path class="cls-5" d="M403.49,279.27l3.23-1.9c4.55,16.51,20.68,27.71,43.65,27.71,24.47,0,37.57-13.48,37.57-31.7,0-16.13-13.28-24.86-38.14-32.26-13.48-3.79-20.88-6.83-29-12.14s-11.95-12.91-11.95-22.78c0-9.67,3.6-17.64,10.81-24.29,7.4-6.64,16.7-10,28.28-10,20.3,0,34,10.81,40,26.75l-3,1.71q-9.67-25-37-25c-11,0-19.74,3-26,9.3s-9.3,13.47-9.3,21.63a24.77,24.77,0,0,0,7.4,17.27c1.9,1.9,4.94,3.8,8.92,5.89,4,1.89,7.4,3.41,10.06,4.36,2.85.95,6.83,2.47,12.33,4.18,26.57,8.54,40.42,17.45,40.42,35.48,0,21.07-15.75,35.11-41.36,35.11C425.88,308.49,408.62,296.16,403.49,279.27Z"/><path class="cls-5" d="M610.34,173.75h3.79V306.59h-3.79V240H523v66.61h-3.79V173.75H523v62.82h87.3Z"/><path class="cls-5" d="M652.08,173.75h3.8V306.59h-3.8Z"/><path class="cls-5" d="M784.92,173.75h3.79V306.59h-3.79l-87.3-126.38V306.59h-3.79V173.75h3.79l87.3,126.39Z"/><path class="cls-5" d="M830.46,303.18h70.21v3.41h-74V173.75h73.06v3.42H830.46V237.9H895v3.41H830.46Z"/><path class="cls-1" d="M480.36,47.14V63.47H451.11v87.59H434V63.47h-29.4V47.14Z"/><path class="cls-1" d="M504.11,47.14h17.07V151.06H504.11Z"/><path class="cls-1" d="M593.93,47.14c14.25,0,26.13,5,35.48,15s14.25,22.27,14.25,37-4.75,26.87-14.25,37c-9.35,9.94-21.23,15-35.48,15H553.1V47.14Zm0,87.59c9.8,0,17.81-3.41,23.9-10.09s9.35-15.3,9.35-25.54-3.11-18.85-9.35-25.54-14.1-10.09-23.9-10.09H570.18v71.26Z"/><path class="cls-1" d="M742.84,47.14l-36.22,62.65v41.27H689.54V109.79L653.32,47.14h19.44l25.39,46,25.24-46Z"/><path class="cls-1" d="M898.72,145.87l-13.8,8L875,143.19Q862.71,153,846,153c-10.54,0-19.15-2.67-25.83-8.16s-9.8-12.92-9.8-22.27c0-12.47,6.38-23.46,18.26-29.84a29.79,29.79,0,0,1-5.94-18.12c0-8.76,3-15.73,9.06-21.23s13.66-8.16,22.56-8.16c14.25,0,26.58,7.87,32.07,21.67L871.85,75.2c-2.82-8.32-9.2-13.36-17.37-13.36s-14.7,5.34-14.7,13.21a15.68,15.68,0,0,0,1.34,6.23c1.78,4.16,3.41,6.09,7.57,10.4L873.93,119a60.54,60.54,0,0,0,5.35-18.11l14.54,8.32a67.3,67.3,0,0,1-8.61,22Zm-34.59-14.26L838.6,104.15c-7.28,3.71-11,9.35-11,17.07,0,9.65,7,15.89,19.3,15.89A27.42,27.42,0,0,0,864.13,131.61Z"/></g></g></svg>