<svg xmlns="http://www.w3.org/2000/svg" viewBox="0 0 1654.63 283.27"><defs><style>.cls-1{fill:#2a6f9d;}.cls-2{fill:none;stroke:#2a6f9d;stroke-miterlimit:10;stroke-width:1.07px;}.cls-3{fill:#e7f0f4;}.cls-4{fill:#2d76aa;}.cls-5{fill:#2f96bb;}</style></defs><g id="Capa_2" data-name="Capa 2"><g id="Capa_2-2" data-name="Capa 2"><circle class="cls-1" cx="141.64" cy="141.64" r="132.9"/><circle class="cls-2" cx="141.64" cy="141.64" r="141.1"/><path class="cls-3" d="M191.23,33.76H92.63A2.23,2.23,0,0,0,90.4,36V59.75A2.23,2.23,0,0,0,92.63,62h10.73c15.94,21.11,1.32,48.42-8.31,68.87-7.47,15.88-15.51,33-19.19,51.51,20.23-4.92,45.6-13.75,76.45-26.58q4.91-2,9.61-3.69c-7.17-8.12-13.56-16.91-16.29-28.95-2.47-10.91-.6-32.52,1.52-44.56,8,30.09,41.2,26.68,46.11,26a.71.71,0,0,0,.61-.7V98.59a.71.71,0,0,0-.7-.7C172.63,97.34,168,72.37,166.94,62h24.7a2.23,2.23,0,0,0,2.23-2.23V36a2.23,2.23,0,0,0-2.23-2.23Z"/><ellipse class="cls-3" cx="236.44" cy="102.74" rx="14.78" ry="14.6"/><path class="cls-3" d="M211.66,86.29a12.74,12.74,0,0,0-6.83-6.73,12.79,12.79,0,0,0,6.83-6.73,12.7,12.7,0,0,0,6.82,6.73A12.74,12.74,0,0,0,211.66,86.29Z"/><path class="cls-3" d="M206.09,119a13,13,0,0,0-6.83-6.72,12.79,12.79,0,0,0,6.83-6.73,12.7,12.7,0,0,0,6.82,6.73A12.68,12.68,0,0,0,206.09,119Z"/><ellipse class="cls-3" cx="65.47" cy="107.85" rx="14.6" ry="14.78"/><path class="cls-3" d="M49,132.63a12.74,12.74,0,0,0-6.73,6.83,12.73,12.73,0,0,0-6.72-6.83,12.64,12.64,0,0,0,6.72-6.82A12.74,12.74,0,0,0,49,132.63Z"/><path class="cls-3" d="M81.77,138.2A13,13,0,0,0,75,145a12.79,12.79,0,0,0-6.73-6.83A12.7,12.7,0,0,0,75,131.38,12.74,12.74,0,0,0,81.77,138.2Z"/><path class="cls-4" d="M109.15,201.28c-33.55,3.36-54.72-.69-68.68-7.23a114,114,0,0,0,201.9.82C213.39,178.52,158.29,196.35,109.15,201.28Z"/><path class="cls-5" d="M152.31,155.78C96.76,178.88,59,189,37,186.71q1.62,3.73,3.48,7.34c14,6.54,35.13,10.59,68.68,7.23,49.14-4.93,104.24-22.76,133.22-6.41A113.3,113.3,0,0,0,253.91,161C236.7,143.87,201.78,135.22,152.31,155.78Z"/><path class="cls-5" d="M1122.1,180l3.45-2c4.88,17.68,22.16,29.68,46.75,29.68,26.22,0,40.25-14.43,40.25-33.95,0-17.27-14.23-26.62-40.86-34.55-14.43-4.07-22.36-7.32-31.1-13s-12.8-13.82-12.8-24.39c0-10.37,3.86-18.91,11.58-26,7.93-7.12,17.89-10.77,30.29-10.77,21.75,0,36.39,11.58,42.89,28.66l-3.25,1.83q-10.38-26.84-39.64-26.84c-11.79,0-21.14,3.26-27.85,10s-10,14.44-10,23.18a26.5,26.5,0,0,0,7.93,18.49c2,2,5.29,4.07,9.55,6.31,4.27,2,7.93,3.65,10.78,4.67,3.05,1,7.32,2.64,13.21,4.47,28.45,9.15,43.29,18.7,43.29,38,0,22.56-16.87,37.61-44.31,37.61C1146.08,211.33,1127.58,198.12,1122.1,180Z"/><path class="cls-5" d="M1343.65,67h4.06V209.29h-4.06V138h-93.5v71.34h-4.07V67h4.07v67.28h93.5Z"/><path class="cls-5" d="M1388.36,67h4.07V209.29h-4.07Z"/><path class="cls-5" d="M1530.64,67h4.07V209.29h-4.07l-93.5-135.37V209.29h-4.06V67h4.06l93.5,135.37Z"/><path class="cls-5" d="M1579.42,205.64h75.21v3.65h-79.27V67h78.25v3.66h-74.19v65h69.11v3.66h-69.11Z"/><path class="cls-1" d="M464.82,63.87V88.1H421.43v130H396.1V88.1H352.48V63.87Z"/><path class="cls-1" d="M500.07,63.87H525.4V218.08H500.07Z"/><path class="cls-1" d="M633.35,63.87c21.15,0,38.77,7.49,52.65,22.25q21.15,22.14,21.15,54.86,0,32.37-21.15,54.85c-13.88,14.76-31.5,22.25-52.65,22.25H572.77V63.87Zm0,130c14.54,0,26.43-5.07,35.47-15C678.07,169,682.7,156.18,682.7,141c0-15.43-4.63-28-13.88-37.9-9-9.91-20.93-15-35.47-15H598.1V193.85Z"/><path class="cls-1" d="M854.31,63.87l-53.75,93v61.24H775.22V156.84l-53.75-93h28.86L788,132.16l37.45-68.29Z"/><path class="cls-1" d="M1053.74,210.37l-20.49,11.89-14.76-15.86q-18.18,14.53-43,14.54c-15.64,0-28.41-4-38.33-12.11q-14.54-12.24-14.54-33.05c0-18.5,9.48-34.8,27.1-44.28A44.14,44.14,0,0,1,941,104.62c0-13,4.41-23.35,13.44-31.5S974.65,61,987.87,61c21.15,0,39.43,11.67,47.58,32.16l-21.58,12.34c-4.19-12.34-13.66-19.83-25.78-19.83-12.33,0-21.81,7.93-21.81,19.61a23.34,23.34,0,0,0,2,9.25c2.65,6.17,5.07,9,11.24,15.42L1017,170.49c3.75-7.49,6.39-16.52,7.93-26.87L1046.47,156a99.71,99.71,0,0,1-12.78,32.61Zm-51.33-21.15-37.89-40.76c-10.79,5.51-16.3,13.88-16.3,25.34,0,14.32,10.35,23.57,28.64,23.57C986.77,197.37,995.14,194.73,1002.41,189.22Z"/></g></g></svg>