<svg xmlns="http://www.w3.org/2000/svg" viewBox="0 0 978.71 978.71"><defs><style>.cls-1{fill:#2875a8;}.cls-2{fill:none;stroke:#2875a8;stroke-miterlimit:10;stroke-width:3.71px;}.cls-3{fill:#e9f3f7;}.cls-4{fill:#2a7cb8;}.cls-5{fill:#29a0c9;}</style></defs><g id="Capa_2" data-name="Capa 2"><g id="Capa_2-2" data-name="Capa 2"><circle class="cls-1" cx="489.35" cy="489.35" r="459.18"/><circle class="cls-2" cx="489.35" cy="489.35" r="487.5"/><path class="cls-3" d="M660.69,116.63H320.06a7.71,7.71,0,0,0-7.71,7.71v82.1a7.71,7.71,0,0,0,7.71,7.71h37c55.1,72.94,4.56,167.3-28.69,237.93C302.58,507,274.81,566,262.1,630.05c69.9-17,157.54-47.49,264.15-91.81q16.92-7,33.18-12.75c-24.75-28.06-46.84-58.44-56.28-100-8.53-37.69-2.06-112.34,5.26-153.95,27.67,104,142.34,92.16,159.31,89.82a2.44,2.44,0,0,0,2.1-2.42V340.64a2.43,2.43,0,0,0-2.39-2.41c-71-1.9-87-88.18-90.66-124.08h85.34a7.71,7.71,0,0,0,7.71-7.71v-82.1a7.71,7.71,0,0,0-7.71-7.71Z"/><ellipse class="cls-3" cx="816.92" cy="354.98" rx="51.08" ry="50.43"/><path class="cls-3" d="M731.29,298.14c-5.24-12.45-14.74-19.32-23.58-23.25a44,44,0,0,0,23.58-23.25c5.24,12.44,14.73,19.32,23.57,23.25A44.07,44.07,0,0,0,731.29,298.14Z"/><path class="cls-3" d="M712,411.3a45,45,0,0,0-23.58-23.25A44,44,0,0,0,712,364.8c5.24,12.45,14.74,19.32,23.58,23.25A44,44,0,0,0,712,411.3Z"/><ellipse class="cls-3" cx="226.19" cy="372.62" rx="50.43" ry="51.08"/><path class="cls-3" d="M169.34,458.25C156.9,463.49,150,473,146.1,481.83a44.08,44.08,0,0,0-23.25-23.58c12.44-5.24,19.32-14.74,23.25-23.58A44.06,44.06,0,0,0,169.34,458.25Z"/><path class="cls-3" d="M282.51,477.5a45,45,0,0,0-23.25,23.57A44,44,0,0,0,236,477.5c12.45-5.24,19.32-14.74,23.25-23.58A44.08,44.08,0,0,0,282.51,477.5Z"/><path class="cls-4" d="M377.12,695.42c-115.92,11.62-189-2.38-237.29-25C205.37,796.69,337.28,883,489.35,883c150.93,0,282-85,348-209.67C737.27,616.79,546.89,678.41,377.12,695.42Z"/><path class="cls-5" d="M526.25,538.24C334.31,618,203.77,653.07,127.8,645.09q5.58,12.93,12,25.35c48.24,22.6,121.37,36.6,237.29,25,169.77-17,360.15-78.63,460.26-22.14a390.53,390.53,0,0,0,39.89-117.09C817.81,497.08,697.17,467.19,526.25,538.24Z"/></g></g></svg>