<svg xmlns="http://www.w3.org/2000/svg" viewBox="0 0 30.11 30.23"><defs><style>.cls-1{fill:#2f96bb;}</style></defs><g id="Capa_2" data-name="Capa 2"><g id="Artwork"><path class="cls-1" d="M29.05,21.75,25.33,18A3.16,3.16,0,0,0,23.05,17a3.27,3.27,0,0,0-2.31,1L18.6,20.15c-.17-.1-.35-.19-.52-.27s-.47-.23-.67-.36a23.52,23.52,0,0,1-5.59-5.08A14.54,14.54,0,0,1,10,11.55c.56-.51,1.07-1,1.57-1.54.2-.19.38-.39.58-.58a3.11,3.11,0,0,0,0-4.69L10.29,2.9l-.63-.65C9.26,1.84,8.83,1.4,8.39,1A3.19,3.19,0,0,0,6.12,0a3.32,3.32,0,0,0-2.3,1V1L1.5,3.33A5,5,0,0,0,0,6.48,9,9,0,0,0,.08,8.42c0,.17,0,.34.07.51a.34.34,0,0,0,.32.28l1.18.09A.33.33,0,0,0,2,8.89l0-.18a.78.78,0,0,1,0-.14l0-.13c0-.14,0-.28-.05-.43a2,2,0,0,0,0-.24c0-.15,0-.3,0-.44V7.12c0-.23,0-.44,0-.66a3.09,3.09,0,0,1,.9-1.84L5.1,2.31a1.49,1.49,0,0,1,1-.48,1.41,1.41,0,0,1,1,.47l0,0c.41.39.8.79,1.21,1.21L9,4.19,10.84,6a1.48,1.48,0,0,1,0,2.1h0l-.58.58c-.57.59-1.11,1.13-1.7,1.66l0,0a1.41,1.41,0,0,0-.35,1.54l0,.06a15,15,0,0,0,2.19,3.57h0a24.85,24.85,0,0,0,6,5.47,8.52,8.52,0,0,0,.84.46,7,7,0,0,1,.67.36l.08.05a1.38,1.38,0,0,0,1.7-.3L22,19.3a1.53,1.53,0,0,1,1-.51,1.35,1.35,0,0,1,1,.49L27.73,23a1.34,1.34,0,0,1,0,2.12c-.27.28-.54.54-.83.82a18.73,18.73,0,0,0-1.31,1.36,3.23,3.23,0,0,1-2.54,1.07h-.31a14.76,14.76,0,0,1-5.29-1.58A30,30,0,0,1,7.46,19a26.61,26.61,0,0,1-4.63-7.08,3.73,3.73,0,0,1-.18-.63h0A.34.34,0,0,0,2.38,11l-1.31-.08c-.23,0-.35.19-.35.42a.78.78,0,0,0,.07.3h0l.11.28a27.31,27.31,0,0,0,5.18,8.24,32,32,0,0,0,10.61,8.31,16.75,16.75,0,0,0,6,1.76h.43A5,5,0,0,0,27,28.55s0,0,0,0a15.33,15.33,0,0,1,1.19-1.23c.29-.28.59-.57.88-.87a3.4,3.4,0,0,0,1-2.35A3.24,3.24,0,0,0,29.05,21.75Z"/></g></g></svg>