<svg xmlns="http://www.w3.org/2000/svg" viewBox="0 0 136.45 96.43"><defs><style>.cls-1{fill:#fff;}.cls-2{fill:#2a709e;}</style></defs><g id="Capa_2" data-name="Capa 2"><g id="Artwork"><circle class="cls-1" cx="48.22" cy="48.22" r="48.22"/><path class="cls-2" d="M129.59,39.58h-4.9V31.74A11.77,11.77,0,0,0,112.92,20H85.47a11.75,11.75,0,0,0-9.8,5.27A11.77,11.77,0,0,0,65.86,20H38.41A11.77,11.77,0,0,0,26.65,31.74v7.84h-4.9a6.89,6.89,0,0,0-6.87,6.87V84.68a2,2,0,0,0,2,2h3.93v5.88a2,2,0,0,0,2,2h5.88A2,2,0,0,0,30.51,93l1.59-6.36h87.13L120.82,93a2,2,0,0,0,1.9,1.49h5.89a2,2,0,0,0,2-2V86.64h3.92a2,2,0,0,0,2-2V46.45A6.87,6.87,0,0,0,129.59,39.58Zm-102.51,51H24.69V86.64h3.37Zm7.41-7.84H18.8V46.45a3,3,0,0,1,2.95-2.94h9.8a2.94,2.94,0,0,1,2.94,2.94ZM31.55,39.58h-1V31.74a7.84,7.84,0,0,1,7.84-7.84H65.86a7.85,7.85,0,0,1,7.85,7.84V59.19H46.26a11.74,11.74,0,0,0-7.85,3V46.45A6.87,6.87,0,0,0,31.55,39.58Zm81.37,43.14H38.41V71a7.87,7.87,0,0,1,7.85-7.85h58.82A7.85,7.85,0,0,1,112.92,71Zm0-36.27V62.2a11.71,11.71,0,0,0-7.84-3H77.63V31.74a7.84,7.84,0,0,1,7.84-7.84h27.45a7.84,7.84,0,0,1,7.84,7.84v7.84h-1A6.89,6.89,0,0,0,112.92,46.45Zm13.73,44.11h-2.39l-1-3.92h3.37Zm5.88-7.84H116.84V46.45a2.94,2.94,0,0,1,2.94-2.94h9.81a2.94,2.94,0,0,1,2.94,2.94Z"/><circle class="cls-2" cx="52.14" cy="33.7" r="1.96"/><circle class="cls-2" cx="52.14" cy="45.47" r="1.96"/><circle class="cls-2" cx="58.02" cy="39.58" r="1.96"/><circle class="cls-2" cx="46.26" cy="39.58" r="1.96"/><circle class="cls-2" cx="99.2" cy="33.7" r="1.96"/><circle class="cls-2" cx="99.2" cy="45.47" r="1.96"/><circle class="cls-2" cx="105.08" cy="39.58" r="1.96"/><circle class="cls-2" cx="93.31" cy="39.58" r="1.96"/></g></g></svg>